<svg width="36" height="36" viewBox="0 0 36 36" fill="none" xmlns="http://www.w3.org/2000/svg">
<path d="M20 28.625C20 28.625 30.661 25.9 33.356 15.72C33.752 14.225 31.838 13 29.488 13H5.999C4.824 13 2.259 13.493 2.927 15.894C5.711 25.9 16 28.625 16 28.625V29.798C16 29.798 11.366 32.241 10.412 32.808C9.385 33.396 10.144 34.334 10.556 34.497C11.24 34.766 12.946 35.647 17.672 35.647C22.519 35.647 25.169 34.693 25.755 34.497C25.981 34.422 26.952 33.524 25.557 32.698C23.073 31.228 20 29.798 20 29.798V28.625V28.625Z" fill="#55ACEE"/>
<path d="M33.291 15.248C33.291 16.94 26.456 18.312 18.022 18.312C9.59 18.312 2.754 16.941 2.754 15.248C2.754 13.555 9.59 12.184 18.022 12.184C26.456 12.184 33.291 13.555 33.291 15.248V15.248Z" fill="#3B88C3"/>
<path d="M25.982 6.90797C25.982 8.52097 22.849 11.653 18.15 11.653C13.825 11.653 10.319 9.56497 10.319 6.90797C10.319 2.58297 13.824 0.120972 18.15 0.120972C22.477 0.121972 25.982 2.58297 25.982 6.90797Z" fill="#F4ABBA"/>
<path d="M33.291 14.217C33.291 15.83 30.159 18.44 25.461 18.44C21.135 18.44 17.629 19.833 17.629 14.217C17.629 12.1401 18.454 10.1482 19.9226 8.67963C21.3912 7.21104 23.3831 6.38599 25.46 6.38599C27.5369 6.38599 29.5288 7.21104 30.9974 8.67963C32.4659 10.1482 33.291 12.1401 33.291 14.217V14.217Z" fill="#FFE8B6"/>
<path d="M18.672 14.217C18.672 19.399 15.54 18.528 10.841 18.528C6.516 18.528 3.01 16.875 3.01 14.217C3.01 12.1401 3.83505 10.1482 5.30365 8.67963C6.77225 7.21104 8.76409 6.38599 10.841 6.38599C12.9179 6.38599 14.9098 7.21104 16.3784 8.67963C17.847 10.1482 18.672 12.1401 18.672 14.217V14.217Z" fill="#8A4B38"/>
<path d="M30.837 21.098C31.7103 19.8677 32.4108 18.5236 32.919 17.103C19.434 21.835 6.849 18.478 3.442 17.439C3.90582 18.6533 4.50885 19.8097 5.239 20.885C16.589 24.136 26.79 22.089 30.837 21.098V21.098Z" fill="#3B88C3"/>
<path d="M2.837 15.1771C4.233 15.7771 18.325 20.2231 33.335 15.2641C33.335 15.9161 32.924 17.7411 32.682 18.4391C32.291 19.5711 17.281 23.2691 3.794 18.7001C3.402 18.5271 2.228 14.9161 2.837 15.1771V15.1771Z" fill="#55ACEE"/>
</svg>
