<svg width="36" height="36" viewBox="0 0 36 36" fill="none" xmlns="http://www.w3.org/2000/svg">
<path d="M6.20301 21.641C6.12501 22.563 6.52401 22.839 7.14901 23.277C7.76701 23.71 11.532 20.41 12.763 19.908C13.994 19.406 25.55 16.959 25.049 14.725C24.548 12.491 21.056 12.161 18.366 12.617C15.676 13.073 10.528 15.439 9.02401 16.716C7.52001 17.992 6.20301 21.641 6.20301 21.641V21.641ZM14.825 23.138C14.825 23.138 11.268 24.293 11.268 27.293C11.268 30.293 12.134 31.985 12.544 32.806C12.955 33.626 14.232 34.422 15.999 33.657C18.051 32.768 15.508 27.653 21.999 30.001C24.973 31.076 28.058 32.529 31.058 31.529C33.904 30.58 35 27 35 25C35 20.906 32 22 31 23C30 24 22 26 21 26C20 26 14.825 23.138 14.825 23.138Z" fill="#D2A077"/>
<path d="M19.312 28.188C19.312 28.188 19.192 26.872 17.937 26.719C16.906 26.594 15.281 26.938 14.437 28.625C13.593 30.313 12.093 30.031 12.156 31.437C12.218 32.843 12.656 33.937 13.562 34.218C14.469 34.5 15.75 34 15.906 32.5C16.062 31 16.25 29.625 17.218 29.031C18.188 28.438 19.312 28.188 19.312 28.188Z" fill="#E2C196"/>
<path d="M18 26C18 26 17 25 15 25C13 25 8.33601 27.133 9.75001 31.375C10.75 34.375 13.594 32.969 14 30C14.407 27.027 18 26 18 26Z" fill="#D2A077"/>
<path d="M17 26C17 26 16 25 14 25C12 25 9.115 26.53 9 31C8.906 34.656 13.031 33 13 30C12.969 27 17 26 17 26Z" fill="#E2C196"/>
<path d="M5 27C5 30.297 5.457 32.286 7.428 31.947C10.697 31.385 9.456 27.333 12.317 26.193C14.394 25.366 17.418 25.563 20.337 27.296C22.26 28.438 21 24 19 23C17 22 11 23 10 23C9 23 5 27 5 27Z" fill="#D2A077"/>
<path d="M4.842 27.174C3.251 29.839 4.219 32.594 7 32C9.691 31.426 8.343 27.93 11 26C12.489 24.918 15.698 24.555 17.698 25.555C19.698 26.555 20 24 18 23C16 22 9.46 22.975 8.462 23.037C6.553 23.156 4.842 27.174 4.842 27.174Z" fill="#E2C196"/>
<path d="M9.418 29.114C9.25657 29.2992 9.06024 29.4507 8.84024 29.5599C8.62023 29.6692 8.38086 29.734 8.13579 29.7507C7.89072 29.7675 7.64476 29.7357 7.41196 29.6574C7.17916 29.579 6.96407 29.4555 6.779 29.294L6.583 29.123C6.39789 28.9617 6.24639 28.7654 6.13715 28.5455C6.02791 28.3256 5.96308 28.0863 5.94637 27.8413C5.92965 27.5963 5.96138 27.3505 6.03973 27.1177C6.11808 26.885 6.24152 26.67 6.403 26.485L28.926 0.668029C29.0874 0.482886 29.2838 0.331362 29.5038 0.222112C29.7238 0.112862 29.9631 0.048028 30.2082 0.0313124C30.4533 0.0145969 30.6992 0.0463278 30.932 0.124693C31.1648 0.203057 31.3799 0.32652 31.565 0.488029L31.76 0.659029C32.1338 0.984886 32.3628 1.44585 32.3967 1.94055C32.4307 2.43525 32.2667 2.92318 31.941 3.29703L9.418 29.114Z" fill="#3B88C3"/>
<path d="M10.49 27.886C8.13 30.591 2.177 35.895 1.423 35.238C0.670001 34.581 5.116 27.963 7.476 25.257C9.836 22.551 9.137 24.715 9.969 25.442C10.801 26.168 12.85 25.182 10.49 27.886V27.886Z" fill="#3B88C3"/>
<path d="M6.672 25.026C6.672 26.026 9.093 26.941 10.093 25.941C11.093 24.941 13.434 23.713 16.512 25C23.716 28.01 21 24 18 23C15 22 10 23 9 23C8 23 6.672 25.026 6.672 25.026V25.026Z" fill="#D2A077"/>
<path d="M6.195 22.043C5.837 20.93 8.383 14.764 9.536 13.809C10.988 12.607 16.605 10.746 18.605 10.746C20.605 10.746 35 18 35 23C35 28 33 28.625 30.125 29.406C27.826 30.031 23.01 29.648 20.906 27.687C19.062 25.969 17.781 24.781 16 24C12.698 22.552 10.497 24.424 9.497 25.424C7.497 27.424 3.729 25.265 6.872 21.844C9.121 19.395 11.102 18.632 13 18C19 16 23 16 21 14C20.293 13.293 19.908 14.346 18.924 14.525C16.944 14.885 15.368 15.127 12.759 15.997C11.857 16.297 7.587 19.02 6.195 22.043Z" fill="#F3D2A2"/>
<path d="M13.196 16.275C14.26 15.887 18.898 15.043 21.311 14.207C23.26 13.531 24.97 14.843 21.271 16.235C17.701 17.578 13.992 17.468 11.287 18.542C10.264 18.948 9.377 17.667 13.196 16.275V16.275Z" fill="#D2A077"/>
<path d="M22.487 8.02295C22.487 8.02295 16.559 14.8179 14.041 17.6839C16.295 16.7579 18.312 16.9339 20.239 15.7999C22.166 14.6669 23.045 13.4579 25.969 10.1049C27.055 8.86095 22.487 8.02295 22.487 8.02295V8.02295Z" fill="#3B88C3"/>
</svg>
