<svg width="36" height="36" viewBox="0 0 36 36" fill="none" xmlns="http://www.w3.org/2000/svg">
<g clip-path="url(#clip0_2013_333)">
<path d="M0 12.4C0 10.1598 0 9.03968 0.435974 8.18404C0.819467 7.43139 1.43139 6.81947 2.18404 6.43597C3.03968 6 4.15979 6 6.4 6H25.6C27.8402 6 28.9603 6 29.816 6.43597C30.5686 6.81947 31.1805 7.43139 31.564 8.18404C32 9.03968 32 10.1598 32 12.4V21H0V12.4Z" fill="#935429"/>
<path d="M5.73777 9.17029L22.3517 4.7186C23.9746 4.28374 24.7861 4.06632 25.4906 4.21606C26.1102 4.34778 26.6723 4.6723 27.0963 5.14311C27.5782 5.67835 27.7956 6.48981 28.2305 8.11271L30.0422 14.8742C30.3321 15.9561 30.4771 16.4971 30.3772 16.9668C30.2894 17.3799 30.0731 17.7546 29.7592 18.0372C29.4024 18.3585 28.8614 18.5035 27.7795 18.7934L9.62006 23.6592L5.73777 9.17029Z" fill="#30A48F"/>
<path d="M0 13.0687L13.8364 2.85134C15.188 1.85327 15.8637 1.35423 16.5742 1.23606C17.1992 1.1321 17.841 1.22867 18.4077 1.51191C19.0519 1.83391 19.551 2.5097 20.549 3.86129L27.6405 13.4645C28.3059 14.3656 28.6386 14.8161 28.7174 15.2898C28.7867 15.7064 28.7223 16.1343 28.5335 16.5121C28.3188 16.9416 27.8683 17.2743 26.9672 17.9397L11.8437 29.1075L0 13.0687Z" fill="#5ABEAC"/>
<circle cx="11.887" cy="14.8572" r="5.5" transform="rotate(-36.4438 11.887 14.8572)" fill="#89E2D2"/>
<path fill-rule="evenodd" clip-rule="evenodd" d="M16.559 5.19161L13.3413 7.56775L12.7472 6.76331L15.965 4.38717C16.6314 3.89506 17.5706 4.03636 18.0627 4.70278L21.6269 9.52942L20.8225 10.1235L17.2583 5.29681C17.0942 5.07467 16.7812 5.02757 16.559 5.19161Z" fill="#89E2D2"/>
<path d="M1 13H27.5L28 14H1V13Z" fill="#30A38F" fill-opacity="0.5"/>
<path d="M27.6 14H4C1.79086 14 0 12.2091 0 10V29.6C0 31.8402 0 32.9603 0.435974 33.816C0.819467 34.5686 1.43139 35.1805 2.18404 35.564C3.03969 36 4.15979 36 6.4 36H27.6C29.8402 36 30.9603 36 31.816 35.564C32.5686 35.1805 33.1805 34.5686 33.564 33.816C34 32.9603 34 31.8402 34 29.6V20.4C34 18.1598 34 17.0397 33.564 16.184C33.1805 15.4314 32.5686 14.8195 31.816 14.436C30.9603 14 29.8402 14 27.6 14Z" fill="#C47E4D"/>
<path d="M21 25C21 22.2386 23.2386 20 26 20H34.4C34.9601 20 35.2401 20 35.454 20.109C35.6422 20.2049 35.7951 20.3578 35.891 20.546C36 20.7599 36 21.0399 36 21.6V28.4C36 28.9601 36 29.2401 35.891 29.454C35.7951 29.6422 35.6422 29.7951 35.454 29.891C35.2401 30 34.9601 30 34.4 30H26C23.2386 30 21 27.7614 21 25V25Z" fill="#925429"/>
<circle cx="26" cy="25" r="3" fill="#EFC75E"/>
</g>
<defs>
<clipPath id="clip0_2013_333">
<rect width="36" height="36" fill="white"/>
</clipPath>
</defs>
</svg>
